# xmcd
#
# Track frame offsets:
#	150
#	39487
#	66901
#	81154
#	93592
#	106554
#	119406
#	143570
#	157700
#	171293
#	196266
#	206379
#	219590
#	237626
#	247967
#	262648
#
# Disc length: 3698
#
# Revision: 1
# Processed by: cddbd v1.5.1PL0 Copyright (c) Steve Scherf et al.
# Submitted via: CDex 1.51
# Normalized: r0:DSETVAR1
#
DISCID=cf0e7010
DTITLE=Various Artist - STEPS TO VILLAGE VOL.2(2)
DYEAR=1900
DGENRE=Jazz
TTITLE0=BENNY GOODMAN - Sing,Sing,Sing
TTITLE1=LOUIS ARMSTRONG - Hello Dolly
TTITLE2=THELONIOUS MONK - Round Midnight
TTITLE3=SARAH VAUGHAN - My Favorite Things
TTITLE4=ART TATUM - Willow Weep For Me
TTITLE5=BILLE HOLIDAY - A Fine Romance
TTITLE6=BILL EVANS - Turn Out The Stars
TTITLE7=DUKE ELLINGTON - Perdido
TTITLE8=MILES DAVIS - A Night In Tunisia
TTITLE9=OSCAR PETERSON - Seven Come Eleven
TTITLE10=PEGGY LEE - Just One Of Those Things
TTITLE11=CHARIE PARKER - Ko Ko
TTITLE12=NINA SIMONE - For All We Know
TTITLE13=LENA HORNE - The Lady Is A Tramp
TTITLE14=ASTRUD GILBERTO - the Girl From Ipanema
TTITLE15=SJANGO RENHARDT&STEPHANE GRAPPELI - Tea For Two
EXTD=
EXTT0=
EXTT1=
EXTT2=
EXTT3=
EXTT4=
EXTT5=
EXTT6=
EXTT7=
EXTT8=
EXTT9=
EXTT10=
EXTT11=
EXTT12=
EXTT13=
EXTT14=
EXTT15=
PLAYORDER=
